<svg width="87" height="88" viewBox="0 0 87 88" fill="none" xmlns="http://www.w3.org/2000/svg">
<path d="M8.68709 58.6667V8.66671H0.35376V0.333374H12.8538C15.155 0.333374 17.0204 2.19887 17.0204 4.50004V54.5H68.8472L77.1805 21.1667H25.3538V12.8334H82.5172C84.8184 12.8334 86.6838 14.6989 86.6838 17C86.6838 17.3407 86.6422 17.6801 86.5593 18.0106L76.1426 59.6771C75.6793 61.5321 74.0126 62.8334 72.1005 62.8334H12.8538C10.5526 62.8334 8.68709 60.968 8.68709 58.6667ZM17.0204 87.8334C12.4181 87.8334 8.68709 84.1025 8.68709 79.5C8.68709 74.8975 12.4181 71.1667 17.0204 71.1667C21.6228 71.1667 25.3538 74.8975 25.3538 79.5C25.3538 84.1025 21.6228 87.8334 17.0204 87.8334ZM67.0205 87.8334C62.418 87.8334 58.6872 84.1025 58.6872 79.5C58.6872 74.8975 62.418 71.1667 67.0205 71.1667C71.623 71.1667 75.3538 74.8975 75.3538 79.5C75.3538 84.1025 71.623 87.8334 67.0205 87.8334Z" fill="#007058"/>
</svg>
