<svg width="23" height="28" viewBox="0 0 23 28" fill="none" xmlns="http://www.w3.org/2000/svg">
<path d="M18.9546 10.5C18.9546 6.35786 15.5967 3 11.4546 3C7.31245 3 3.95459 6.35786 3.95459 10.5V20.5H18.9546V10.5ZM21.4546 21.3334L21.9546 22C22.1617 22.2761 22.1057 22.6679 21.8296 22.875C21.7215 22.9561 21.5898 23 21.4546 23H1.45459C1.10941 23 0.82959 22.7201 0.82959 22.375C0.82959 22.2397 0.873452 22.1081 0.95459 22L1.45459 21.3334V10.5C1.45459 4.97715 5.93174 0.5 11.4546 0.5C16.9775 0.5 21.4546 4.97715 21.4546 10.5V21.3334ZM8.32959 24.25H14.5796C14.5796 25.9759 13.1805 27.375 11.4546 27.375C9.72871 27.375 8.32959 25.9759 8.32959 24.25Z" fill="#808080"/>
</svg>
